<svg width="20" height="20" viewBox="0 0 20 20" fill="none" xmlns="http://www.w3.org/2000/svg">
<path d="M3.47631 14.857C2.85119 14.2319 2.5 13.3841 2.5 12.5C2.49996 11.7433 2.75734 11.009 3.22984 10.418C3.70234 9.82689 4.36185 9.41412 5.1 9.2475C4.97326 8.70792 4.9554 8.14848 5.04747 7.60191C5.13954 7.05535 5.33969 6.53264 5.63621 6.06436C5.93273 5.59608 6.31966 5.19164 6.77437 4.8747C7.22908 4.55776 7.74243 4.33469 8.28439 4.21854C8.82635 4.10239 9.38603 4.0955 9.93068 4.19825C10.4753 4.30101 10.994 4.51136 11.4564 4.817C11.9188 5.12264 12.3156 5.51742 12.6235 5.97825C12.9315 6.43908 13.1445 6.9567 13.25 7.50083C13.8006 7.48982 14.3479 7.58805 14.8602 7.78985C15.3726 7.99165 15.8399 8.29302 16.2351 8.67652C16.6303 9.06003 16.9455 9.51806 17.1626 10.0242C17.3797 10.5302 17.4943 11.0743 17.4998 11.625C17.5053 12.1756 17.4016 12.7219 17.1947 13.2323C16.9878 13.7426 16.6817 14.2068 16.2943 14.5982C15.9069 14.9895 15.4457 15.3002 14.9375 15.5122C14.4292 15.7242 13.884 15.8333 13.3333 15.8333H5.83333C4.94928 15.8333 4.10143 15.4821 3.47631 14.857Z" stroke="white" stroke-width="2" stroke-linecap="round" stroke-linejoin="round"/>
</svg>
