<svg width="8" height="8" viewBox="0 0 8 8" fill="none" xmlns="http://www.w3.org/2000/svg">
<path d="M0.800003 2.4C0.800003 2.18783 0.884288 1.98434 1.03432 1.83431C1.18435 1.68428 1.38783 1.6 1.6 1.6H4C4.21218 1.6 4.41566 1.68428 4.56569 1.83431C4.71572 1.98434 4.8 2.18783 4.8 2.4V5.6C4.8 5.81217 4.71572 6.01565 4.56569 6.16568C4.41566 6.31571 4.21218 6.4 4 6.4H1.6C1.38783 6.4 1.18435 6.31571 1.03432 6.16568C0.884288 6.01565 0.800003 5.81217 0.800003 5.6V2.4ZM5.8212 2.8424C5.75477 2.87559 5.69889 2.92663 5.65982 2.98979C5.62076 3.05295 5.60004 3.12573 5.6 3.2V4.8C5.60004 4.87426 5.62076 4.94705 5.65982 5.01021C5.69889 5.07337 5.75477 5.1244 5.8212 5.1576L6.6212 5.5576C6.68217 5.58806 6.74991 5.60245 6.818 5.59938C6.88609 5.59631 6.95226 5.5759 7.01025 5.54008C7.06823 5.50425 7.1161 5.45421 7.14931 5.39469C7.18252 5.33517 7.19997 5.26816 7.2 5.2V2.8C7.19997 2.73184 7.18252 2.66483 7.14931 2.60531C7.1161 2.54579 7.06823 2.49574 7.01025 2.45992C6.95226 2.4241 6.88609 2.40368 6.818 2.40062C6.74991 2.39755 6.68217 2.41193 6.6212 2.4424L5.8212 2.8424Z" fill="#E0F2FE"/>
</svg>
